<svg id="Layer_1" data-name="Layer 1" xmlns="http://www.w3.org/2000/svg" xmlns:xlink="http://www.w3.org/1999/xlink" width="200" height="200" viewBox="0 0 200 200"><defs><style>.cls-1{fill:url(#linear-gradient);}.cls-2{fill:#fff;}</style><linearGradient id="linear-gradient" x1="14" y1="94.5" x2="187" y2="94.5" gradientUnits="userSpaceOnUse"><stop offset="0" stop-color="#edc098"/><stop offset="0.25" stop-color="#d9c6af"/><stop offset="0.74" stop-color="#b5d1d6"/><stop offset="1" stop-color="#a8d5e5"/></linearGradient></defs><circle class="cls-1" cx="100.5" cy="94.5" r="86.5"/><path class="cls-2" d="M57.34,120.89,84.06,94.41a1.12,1.12,0,0,0,.32-.79V33.8A1.14,1.14,0,0,1,84.7,33L94.85,22.68a1.11,1.11,0,0,1,1.9.78V158a1.11,1.11,0,0,1-1.88.8L57.35,122.47A1.1,1.1,0,0,1,57.34,120.89Z"/><path class="cls-2" d="M101.67,15V171.28a1.44,1.44,0,0,0,2.77.57l27.81-65.06a1.45,1.45,0,0,0-.4-1.68l-16.75-14a1.45,1.45,0,0,1-.3-1.88l15.88-25.21a1.44,1.44,0,0,0,0-1.46L104.38,14.32A1.44,1.44,0,0,0,101.67,15Z"/></svg>
