<svg id="Layer_1" data-name="Layer 1" xmlns="http://www.w3.org/2000/svg" width="200" height="200" viewBox="0 0 200 200"><defs><style>.cls-1{fill:#fff;}</style></defs><circle cx="99.5" cy="95.5" r="86.5"/><path class="cls-1" d="M54.21,122.55,80.93,96.07a1.13,1.13,0,0,0,.33-.79V35.46a1.13,1.13,0,0,1,.31-.78L91.72,24.34a1.11,1.11,0,0,1,1.9.77V159.62a1.11,1.11,0,0,1-1.88.8L54.22,124.13A1.11,1.11,0,0,1,54.21,122.55Z"/><path class="cls-1" d="M98.54,16.67V172.94a1.44,1.44,0,0,0,2.77.57l27.82-65.06a1.46,1.46,0,0,0-.41-1.68L112,92.81a1.46,1.46,0,0,1-.3-1.88l15.88-25.21a1.44,1.44,0,0,0,0-1.46L101.25,16A1.44,1.44,0,0,0,98.54,16.67Z"/></svg>
